<?xml version="1.0" encoding="UTF-8"?>
<svg id="Layer_1" data-name="Layer 1" xmlns="http://www.w3.org/2000/svg" viewBox="0 0 344.59 315.27">
  <defs>
    <style>
      .cls-1 {
        fill: #5371b6;
      }
    </style>
  </defs>
  <path class="cls-1" d="M234.45,64.92s.26,16.36-4.35,22.59c-3.43,4.63,1.16,2.09,5,2.13,3.84.04,60.12-14,98.58,58.63,32.79,61.94-17.2,114.27-33.72,121.81-5.2,2.38-38.33,21.31-93.43,5.58,0,0,4.26,34.16-4.07,38.79-8.33,4.63-49.36-11.29-58.84-28.37-2-3.58,1.05-11.33-7.32-6.3-8.37,5.04-21.52,10.33-31.76,10.56,0,0-6.15-4.21-13.98-36.94-.7-2.93-2.5,1.39-5.88,2.18-3.38.79-46.61-2.43-61.21-28.69-4.18-7.5,28.74-25.79,28.74-25.79,0,0-23.24-14.35-40.79-44.94C-6.14,125.57-10.13,63.44,49.02,30.56c62.08-34.5,121.25,15.96,123.98,19.97,11.63,16.99,9.97,22.82,18.47,7.73,3.27-5.77,10.76-8.15,10.76-8.15,0,0-4.13-6.44,8.83-32.18,0,0-6.44-10.6,2.91-16.34,9.35-5.74,14.12,5.78,14.64,7.68.5,1.9-4.55,8.52-11.67,11.39,0,0-12.41,18.89-11.16,28.01,0,0,15.47-2.59,27.01,12.26,0,0,7.96-3.33,16.01-24.17,0,0-6.94-12.5,2.64-17.83,9.59-5.33,14.59,6.62,14.59,6.62,0,0,.94,11.48-12.22,13.34,0,0-7.81,21.25-19.34,26.02ZM179.97,77.76s-14.16-28.15-41.58-38.51c-22.78-8.61-46.45-17.82-86.85,4.65C11.11,66.36-1.97,113.44,18.87,150.93c20.83,37.5,49.04,48,73.25,50.35,0,0,4.77,6.62,1.39,12.31-3.37,5.7-17.96-5.82-25.84-5.27-7.87.56-31.48,7.14-31.47,16.95,0,9.81,41.62,29.76,64.58,13.18,22.95-16.58,19.06-12.79,37.01-36.4,17.96-23.62,27.78-33.44,14.96,5.32-12.81,38.75-5.58,62.54-3.03,67.13,2.55,4.58,33.2,39.48,46.67,28.04,7.4-6.3-1.49-29.17-1.49-29.17,0,0-22.65-20.13-24.58-20.69,0,0,2.49-6.29,10.08-8.33,0,0,42.84,54.59,113.39,16.6,62.96-33.9,28.95-108.8,26.22-112.73-2.72-3.94-12.5-32.31-47.59-44.43-35.09-12.12-67.41.38-72.09,5.71-4.67,5.33-13.79,1.67-12.68-7.13,1.11-8.79-7.69-24.63-7.69-24.63Z"/>
</svg>